<svg width="20" height="20" viewBox="0 0 20 20" fill="none" xmlns="http://www.w3.org/2000/svg">
<path fill-rule="evenodd" clip-rule="evenodd" d="M10.475 1.17968C10.6225 1.29832 10.7083 1.47743 10.7083 1.66675V18.3334C10.7083 18.5227 10.6225 18.7019 10.475 18.8205C10.3274 18.9391 10.1341 18.9845 9.94917 18.9439L2.36584 17.2772C2.0792 17.2142 1.875 16.9602 1.875 16.6668V3.33342C1.875 3.03994 2.0792 2.78599 2.36584 2.72299L9.94917 1.05632C10.1341 1.01568 10.3274 1.06105 10.475 1.17968ZM3.125 3.83597V16.1642L9.45833 17.5561V2.44403L3.125 3.83597Z" fill="#4A4A49"/>
<path fill-rule="evenodd" clip-rule="evenodd" d="M9.45831 3.33325C9.45831 2.98807 9.73814 2.70825 10.0833 2.70825H17.5C17.8452 2.70825 18.125 2.98807 18.125 3.33325V16.6666C18.125 17.0118 17.8452 17.2916 17.5 17.2916H10.0833C9.73814 17.2916 9.45831 17.0118 9.45831 16.6666C9.45831 16.3214 9.73814 16.0416 10.0833 16.0416H16.875V3.95825H10.0833C9.73814 3.95825 9.45831 3.67843 9.45831 3.33325Z" fill="#4A4A49"/>
<path fill-rule="evenodd" clip-rule="evenodd" d="M7.5 8.54175C7.84518 8.54175 8.125 8.82157 8.125 9.16675V10.8334C8.125 11.1786 7.84518 11.4584 7.5 11.4584C7.15482 11.4584 6.875 11.1786 6.875 10.8334V9.16675C6.875 8.82157 7.15482 8.54175 7.5 8.54175Z" fill="#4A4A49"/>
</svg>
