<svg width="48" height="48" viewBox="0 0 48 48" fill="none" xmlns="http://www.w3.org/2000/svg">
<path d="M18.4 26.2931C18.351 26.2931 18.309 26.2931 18.26 26.2791C17.882 26.2021 17.637 25.8311 17.714 25.4531L18.414 21.9601C18.484 21.6171 18.785 21.3931 19.142 21.4001C23.601 21.4001 26.66 22.5131 27.759 24.5291C27.941 24.8651 27.815 25.2921 27.479 25.4811C27.136 25.6631 26.716 25.5371 26.527 25.2011C25.75 23.7661 23.202 22.8911 19.667 22.8071L19.079 25.7331C19.009 26.0691 18.722 26.2931 18.393 26.2931H18.4Z" fill="#F7F1E4"/>
<path d="M3.7 40.9929C3.315 40.9929 3 40.6779 3 40.2929V26.2929C3 25.2639 3.378 24.3679 4.127 23.6189C5.56201 22.1909 8.37601 21.3999 12.051 21.3999C12.38 21.3999 12.716 21.6169 12.786 21.9599L16.286 38.7529C16.363 39.1309 16.125 39.5019 15.747 39.5789C15.369 39.6559 14.998 39.4109 14.921 39.0399L11.54 22.8139C8.53701 22.8839 6.21301 23.5279 5.128 24.6199C4.645 25.1029 4.407 25.6559 4.407 26.2999V40.2999C4.407 40.6849 4.092 40.9999 3.707 40.9999L3.7 40.9929Z" fill="#F7F1E4"/>
<path d="M15.6003 29.793C15.2153 29.793 14.9003 29.478 14.9003 29.093V23.493C14.9003 23.108 15.2153 22.793 15.6003 22.793C15.9853 22.793 16.3003 23.108 16.3003 23.493V29.093C16.3003 29.478 15.9853 29.793 15.6003 29.793Z" fill="#F7F1E4"/>
<path d="M15.6 24.1931C14.83 24.1931 14.2 23.5631 14.2 22.7931C14.2 22.0231 14.83 21.3931 15.6 21.3931C16.37 21.3931 17 22.0231 17 22.7931C17 23.5631 16.37 24.1931 15.6 24.1931Z" fill="#F7F1E4"/>
<path d="M7.90011 42.393C7.5151 42.393 7.2001 42.078 7.2001 41.693V30.493C7.2001 30.108 7.5151 29.793 7.90011 29.793C8.28511 29.793 8.60011 30.108 8.60011 30.493V41.693C8.60011 42.078 8.28511 42.393 7.90011 42.393Z" fill="#F7F1E4"/>
<path d="M15.5999 19.993C12.3659 19.993 11.4069 18.075 10.7769 16.808C10.7489 16.752 10.1609 15.569 10.0279 14.225C9.5939 13.987 9.2999 13.525 9.2999 13V11.6C9.2999 11.082 9.5799 10.627 9.9999 10.389V10.2C9.9999 7.883 11.8829 6 14.1999 6H16.9999C19.3169 6 21.1999 7.883 21.1999 10.2V10.389C21.6199 10.634 21.8999 11.082 21.8999 11.6V13C21.8999 13.525 21.6059 13.987 21.1719 14.225C21.0389 15.569 20.4509 16.752 20.4229 16.808C19.7859 18.075 18.8269 19.993 15.5999 19.993ZM14.1999 7.393C12.6529 7.393 11.3999 8.64601 11.3999 10.193V10.893C11.3999 11.278 11.0849 11.593 10.6999 11.593V12.993C11.0849 12.993 11.3999 13.308 11.3999 13.693C11.3999 14.904 12.0229 16.171 12.0299 16.178C12.7579 17.634 13.4019 18.593 15.5999 18.593C17.7979 18.593 18.4419 17.641 19.1769 16.178C19.1769 16.164 19.7999 14.904 19.7999 13.693C19.7999 13.308 20.1149 12.993 20.4999 12.993V11.593C20.1149 11.593 19.7999 11.278 19.7999 10.893V10.193C19.7999 8.64601 18.5469 7.393 16.9999 7.393H14.1999Z" fill="#F7F1E4"/>
<path d="M17.7001 12.9928H17.0001C16.6151 12.9928 16.3001 12.6778 16.3001 12.2928C16.3001 11.9078 16.6151 11.5928 17.0001 11.5928H17.7001C18.0851 11.5928 18.4001 11.9078 18.4001 12.2928C18.4001 12.6778 18.0851 12.9928 17.7001 12.9928Z" fill="#F7F1E4"/>
<path d="M14.2 12.9928H13.5C13.115 12.9928 12.8 12.6778 12.8 12.2928C12.8 11.9078 13.115 11.5928 13.5 11.5928H14.2C14.585 11.5928 14.9 11.9078 14.9 12.2928C14.9 12.6778 14.585 12.9928 14.2 12.9928Z" fill="#F7F1E4"/>
<path d="M44.2999 40.9933C43.9149 40.9933 43.5999 40.6783 43.5999 40.2933V29.0933C43.5999 27.8683 43.1379 26.7273 42.2909 25.8873C41.2969 24.8933 39.8059 24.3263 37.9509 24.2213C37.7339 25.9643 36.6909 28.3933 33.7999 28.3933C30.4749 28.3933 29.5999 25.1943 29.5999 23.5003C29.5999 23.1153 29.9149 22.8003 30.2999 22.8003C30.6849 22.8003 30.9999 23.1153 30.9999 23.5003C30.9999 23.6403 31.0489 26.9933 33.7999 26.9933C36.5509 26.9933 36.5999 23.6403 36.5999 23.5003C36.5999 23.1083 36.9429 22.8073 37.3209 22.8003C39.8479 22.8003 41.9129 23.5213 43.2849 24.8933C44.3909 25.9993 44.9999 27.4903 44.9999 29.0933V40.2933C44.9999 40.6783 44.6849 40.9933 44.2999 40.9933Z" fill="#F7F1E4"/>
<path d="M33.8 32.5932C33.415 32.5932 33.1 32.2782 33.1 31.8932V27.6932C33.1 27.3082 33.415 26.9932 33.8 26.9932C34.185 26.9932 34.5 27.3082 34.5 27.6932V31.8932C34.5 32.2782 34.185 32.5932 33.8 32.5932Z" fill="#F7F1E4"/>
<path d="M40.1001 42.393C39.7151 42.393 39.4001 42.078 39.4001 41.693L39.4421 30.493C39.4421 30.108 39.7571 29.793 40.1421 29.793C40.5271 29.793 40.8421 30.108 40.8421 30.493L40.8001 41.693C40.8001 42.078 40.4851 42.393 40.1001 42.393Z" fill="#F7F1E4"/>
<path d="M40.1002 22.0931C39.7362 22.0931 39.4282 21.8131 39.4002 21.4491L38.7002 12.3491C38.5812 10.6901 36.3412 8.79307 34.5002 8.79307H33.1002C31.2942 8.79307 29.0542 10.6901 28.9002 12.3561L28.2002 21.4421C28.1722 21.8271 27.8432 22.1141 27.4512 22.0861C27.0662 22.0581 26.7792 21.7221 26.8072 21.3371L27.5072 12.2371C27.7312 9.82907 30.5592 7.39307 33.1072 7.39307H34.5072C36.8172 7.39307 39.9182 9.67507 40.1072 12.2441L40.8072 21.3441C40.8352 21.7291 40.5482 22.0651 40.1632 22.0931C40.1422 22.0931 40.1282 22.0931 40.1072 22.0931H40.1002Z" fill="#F7F1E4"/>
<path d="M33.7999 22.7928C31.1959 22.7928 29.5999 19.5308 29.5999 17.1928V14.3928C29.5999 14.0078 29.9149 13.6928 30.2999 13.6928C30.3629 13.6928 31.9099 13.6508 32.4349 12.0688C32.5329 11.7818 32.7989 11.5928 33.0999 11.5928C33.4009 11.5928 33.6669 11.7888 33.7649 12.0688C34.2059 13.3918 36.4669 13.6858 37.2999 13.6928C37.6849 13.6928 37.9999 14.0078 37.9999 14.3928V17.1928C37.9999 19.5308 36.4039 22.7928 33.7999 22.7928ZM30.9999 15.0088V17.1928C30.9999 19.0968 32.2459 21.3928 33.7999 21.3928C35.3539 21.3928 36.5999 19.0968 36.5999 17.1928V15.0508C35.6969 14.9528 34.1359 14.6518 33.1559 13.6648C32.5329 14.4628 31.6859 14.8478 30.9999 15.0088Z" fill="#F7F1E4"/>
<path d="M25.4002 37.4932C22.4252 37.4932 20.5002 35.2952 20.5002 31.8932V31.1932C20.5002 28.7222 22.2292 26.9932 24.7002 26.9932H26.1002C28.5712 26.9932 30.3002 28.7222 30.3002 31.1932V31.8932C30.3002 35.2952 28.3752 37.4932 25.4002 37.4932ZM24.7002 28.3932C22.9992 28.3932 21.9002 29.4922 21.9002 31.1932V31.8932C21.9002 33.1532 22.2432 36.0932 25.4002 36.0932C28.5572 36.0932 28.9002 33.1532 28.9002 31.8932V31.1932C28.9002 29.4922 27.8012 28.3932 26.1002 28.3932H24.7002Z" fill="#F7F1E4"/>
<path d="M31.7001 42.3929C31.3151 42.3929 31.0001 42.0779 31.0001 41.6929C31.0001 41.1329 31.0001 39.6559 27.7101 39.5929L25.7921 40.8739C25.5541 41.0279 25.2531 41.0279 25.0151 40.8739L23.0971 39.5929C19.8071 39.6559 19.8071 41.1259 19.8071 41.6929C19.8071 42.0779 19.4921 42.3929 19.1071 42.3929C18.7221 42.3929 18.4071 42.0779 18.4071 41.6929C18.4071 40.0969 19.2541 38.1929 23.3071 38.1929C23.4471 38.1929 23.5801 38.2349 23.6921 38.3119L25.4071 39.4529L27.1221 38.3119C27.2341 38.2349 27.3741 38.1929 27.5071 38.1929C31.5601 38.1929 32.4071 40.0969 32.4071 41.6929C32.4071 42.0779 32.0921 42.3929 31.7071 42.3929H31.7001Z" fill="#F7F1E4"/>
<path d="M26.8141 32.5929C26.4291 32.5929 26.1141 32.2779 26.1141 31.8929C26.1141 31.5079 26.4221 31.1929 26.8141 31.1929C27.1991 31.1929 27.5141 31.5079 27.5141 31.8929C27.5141 32.2779 27.1991 32.5929 26.8141 32.5929Z" fill="#F7F1E4"/>
<path d="M24.014 32.5929C23.629 32.5929 23.314 32.2779 23.314 31.8929C23.314 31.5079 23.622 31.1929 24.014 31.1929C24.399 31.1929 24.714 31.5079 24.714 31.8929C24.714 32.2779 24.399 32.5929 24.014 32.5929Z" fill="#F7F1E4"/>
</svg>
