<svg width="78" height="54" viewBox="0 0 78 54" fill="none" xmlns="http://www.w3.org/2000/svg">
<g clip-path="url(#clip0_73_487)">
<path d="M36.4665 50.7887C36.4665 50.7887 36.2116 50.7887 35.7177 50.7887C35.2398 50.7887 34.5229 50.7568 33.6148 50.6612C32.7067 50.5656 31.6234 50.4222 30.3808 50.1673C30.0622 50.1036 29.7435 50.0399 29.4249 49.9602C29.0904 49.8965 28.7558 49.8009 28.4213 49.7053C28.0708 49.6257 27.7362 49.4982 27.3698 49.4026C27.0193 49.2911 26.6529 49.1637 26.2865 49.0362C24.8208 48.4946 23.2595 47.7936 21.6983 46.8855C20.137 45.9774 18.5758 44.8623 17.142 43.524C15.7241 42.1699 14.4018 40.6246 13.2866 38.9199C12.729 38.0756 12.2352 37.1834 11.7572 36.2753C11.6457 36.0523 11.5342 35.8293 11.4227 35.6062C11.3111 35.3832 11.1996 35.1602 11.104 34.9212C11.0085 34.6822 10.8969 34.4592 10.8014 34.2202C10.7058 33.9813 10.5942 33.7582 10.4987 33.5192C9.74989 31.6234 9.1923 29.6639 8.87368 27.6884C8.84181 27.4495 8.79402 27.1946 8.76216 26.9556C8.7303 26.7166 8.71436 26.4617 8.6825 26.2228C8.61878 25.7289 8.61878 25.235 8.58691 24.7571C8.58691 24.5181 8.58691 24.2632 8.58691 24.0243C8.58691 23.7853 8.58691 23.5463 8.58691 23.2914C8.58691 23.0525 8.61878 22.8135 8.63471 22.5745C8.65064 22.3355 8.65064 22.0966 8.6825 21.8576C8.85774 19.9618 9.30382 18.1456 9.9092 16.4569C10.4987 14.7842 11.2634 13.2388 12.0758 11.8688C12.1714 11.6935 12.283 11.5342 12.3785 11.359C12.4901 11.1996 12.5856 11.0244 12.6972 10.8651C12.9043 10.5465 13.1114 10.2278 13.3344 9.94108C13.7646 9.33569 14.1947 8.79403 14.6248 8.2683C15.4692 7.24871 16.2817 6.38842 16.9827 5.70338C17.6677 5.01834 18.2572 4.50854 18.6554 4.15805C19.0537 3.8235 19.2767 3.63232 19.2767 3.63232L19.3405 3.68012C19.3405 3.68012 19.1334 3.87129 18.751 4.22178C18.3687 4.5882 17.8111 5.09799 17.1579 5.79897C15.8356 7.18498 14.0513 9.27197 12.506 12.0121C11.7413 13.3822 11.0085 14.8957 10.4668 16.5525C9.9092 18.2094 9.52685 19.9937 9.35161 21.8576C9.17637 23.7216 9.27196 25.6492 9.57465 27.5769C9.89327 29.5046 10.4349 31.4323 11.1678 33.2803C11.2474 33.5192 11.3589 33.7423 11.4545 33.9653C11.5501 34.1884 11.6457 34.4273 11.7572 34.6504C11.8528 34.8734 11.9643 35.1124 12.0758 35.3354C12.1874 35.5584 12.2989 35.7815 12.4104 36.0045C12.8565 36.8967 13.3503 37.7729 13.892 38.6013C14.9594 40.2741 16.218 41.8035 17.604 43.1258C18.99 44.448 20.4875 45.5632 22.001 46.4872C23.5144 47.4113 25.0279 48.1282 26.4776 48.6698C27.9274 49.2274 29.2815 49.6098 30.5082 49.8965C31.7349 50.1833 32.8023 50.3585 33.6945 50.486C34.5866 50.5975 35.2876 50.6612 35.7815 50.6771C36.2594 50.709 36.5143 50.6931 36.5143 50.6931V50.7568L36.4665 50.7887Z" fill="#DBBB73"/>
<path d="M17.0464 5.86268C17.0464 5.86268 16.3135 3.31369 20.2963 2.02326C24.2791 0.764698 24.311 0.605386 24.8686 0C24.8367 0 22.9409 7.67884 17.0464 5.86268Z" fill="#DBBB73"/>
<path d="M24.5818 51.7924C24.5818 51.7924 27.1467 50.7409 28.8354 50.5816C28.2619 50.024 26.4458 48.5584 24.4544 49.9762C22.0328 51.6968 21.5708 52.2703 20.4556 52.8279C20.4875 52.8279 24.7411 55.7593 28.8992 50.948C28.708 50.964 25.7289 51.3782 24.5977 51.7924H24.5818Z" fill="#DBBB73"/>
<path d="M27.5928 45.4676C27.5928 45.4676 28.469 48.0165 29.4249 49.3548C28.5965 49.291 26.2865 48.9246 26.0475 46.5668C25.7767 43.6992 25.8882 42.9823 25.5536 41.8034C25.5536 41.7874 30.9543 42.9664 29.7435 49.1636C29.6479 49.0043 28.0229 46.5509 27.5769 45.4676H27.5928Z" fill="#DBBB73"/>
<path d="M16.5047 48.0643C16.5047 48.0643 19.7865 47.5226 21.7779 47.7935C21.2841 46.9969 19.6272 44.8621 16.8871 45.9454C13.5734 47.2837 12.8565 47.8253 11.4067 48.1758C11.4545 48.1758 15.5807 52.6366 21.762 48.2236C21.539 48.1917 17.9704 47.8731 16.5207 48.0643H16.5047Z" fill="#DBBB73"/>
<path d="M21.8895 41.6281C21.8895 41.6281 22.1284 44.7666 22.8294 46.5509C21.9054 46.2641 19.3086 45.2286 19.7706 42.4725C20.3282 39.1269 20.7106 38.3144 20.6787 36.8966C20.7106 36.8806 26.5414 39.6526 23.2595 46.4075C23.1958 46.2004 22.0488 42.9663 21.8895 41.6122V41.6281Z" fill="#DBBB73"/>
<path d="M10.0207 41.5172C10.0207 41.5172 13.43 41.7243 15.3258 42.4412C15.039 41.565 13.9717 39.0956 10.9607 39.5417C7.31241 40.0993 6.4362 40.4657 4.89087 40.4816C4.92273 40.4976 7.88593 45.7708 15.1665 42.8554C14.9594 42.7757 11.5023 41.6605 10.0048 41.5172H10.0207Z" fill="#DBBB73"/>
<path d="M17.0942 36.4508C17.0942 36.4508 16.4569 39.5574 16.6959 41.4532C15.8675 40.9593 13.5574 39.3662 14.7682 36.8013C16.2498 33.6629 16.8552 32.9778 17.2375 31.5918C17.2853 31.5918 22.1921 35.5905 17.1738 41.4373C17.1579 41.2302 16.903 37.8209 17.1101 36.4508H17.0942Z" fill="#DBBB73"/>
<path d="M5.84674 33.5671C5.84674 33.5671 9.17636 34.507 10.881 35.6222C10.8332 34.6982 10.4349 32.0536 7.32835 31.8465C3.53672 31.5916 2.58085 31.7669 1.01959 31.4482C1.01959 31.4801 2.59678 37.2631 10.6261 35.9886C10.4349 35.8612 7.28055 34.0291 5.84674 33.5671Z" fill="#DBBB73"/>
<path d="M14.2584 30.1578C14.2584 30.1578 12.7768 33.0573 12.506 34.9531C11.805 34.284 9.94106 32.2448 11.8528 29.9826C14.1788 27.2424 14.9753 26.7008 15.7559 25.4263C15.8037 25.4263 19.4998 30.3968 12.9839 35.0169C13.0158 34.8097 13.6849 31.4323 14.2743 30.1419L14.2584 30.1578Z" fill="#DBBB73"/>
<path d="M4.11024 25.2829C4.11024 25.2829 7.12123 26.9716 8.45945 28.4373C8.68249 27.5292 9.08077 24.8687 6.0857 23.9288C2.43746 22.8295 1.43379 22.7658 -1.24965e-05 22.0967C-0.0159437 22.1285 -0.223049 28.1346 8.10897 28.7241C7.96559 28.5647 5.40066 26.0476 4.12617 25.267L4.11024 25.2829Z" fill="#DBBB73"/>
<path d="M13.43 23.9127C13.43 23.9127 11.0881 26.382 10.2756 28.1822C9.78175 27.3857 8.57098 24.9641 11.12 23.2117C14.2584 21.0929 15.1984 20.7424 16.3454 19.6909C16.3773 19.7068 18.4643 25.3784 10.7058 28.3575C10.8013 28.1663 12.4582 25.0279 13.43 23.9127Z" fill="#DBBB73"/>
<path d="M5.43251 16.9347C5.43251 16.9347 7.61509 19.0376 8.41165 20.6148C8.85772 19.8501 9.95697 17.6038 7.58323 16.1541C4.66782 14.4176 3.7916 14.1627 2.72421 13.2705C2.69235 13.2864 0.748743 18.5437 8.01337 20.806C7.91778 20.6307 6.35652 17.8906 5.44845 16.9347H5.43251Z" fill="#DBBB73"/>
<path d="M14.0832 17.6518C14.0832 17.6518 11.3111 19.3564 10.0844 20.7584C9.86139 19.9459 9.46311 17.5722 12.2351 16.5526C15.6126 15.3259 16.5366 15.2303 17.8429 14.5293C17.8429 14.5612 18.1297 19.9618 10.419 20.9974C10.5624 20.8381 12.9042 18.4165 14.0832 17.6359V17.6518Z" fill="#DBBB73"/>
<path d="M9.17634 10.6259C9.17634 10.6259 10.3393 12.6014 10.5783 13.9237C11.104 13.4139 12.4582 11.8845 10.9925 10.387C9.19227 8.57082 8.58689 8.22033 7.99743 7.37598C7.96557 7.37598 5.19355 11.072 10.2278 14.0034C10.1959 13.86 9.63835 11.5022 9.17634 10.6259Z" fill="#DBBB73"/>
<path d="M15.5966 12.6014C15.5966 12.6014 13.0954 13.4457 11.8369 14.306C11.8528 13.6528 12.1077 11.7729 14.4496 11.4543C17.3013 11.072 18.0341 11.1357 19.1811 10.833C19.1811 10.833 18.1775 15.0229 12.028 14.545C12.1714 14.4494 14.5133 12.9837 15.5966 12.5854V12.6014Z" fill="#DBBB73"/>
<path d="M13.4618 5.70331C13.4618 5.70331 13.9876 7.47167 13.892 8.58685C14.4177 8.2523 15.8515 7.21677 14.9753 5.78296C13.9079 4.04646 13.4937 3.68004 13.2069 2.89941C13.191 2.89941 10.1163 5.48027 13.5893 8.60278C13.5893 8.47533 13.6371 6.48393 13.4618 5.71924V5.70331Z" fill="#DBBB73"/>
<path d="M18.2571 8.23632C18.2571 8.23632 16.0586 8.55494 14.8319 9.08067C14.9753 8.55494 15.5807 7.07334 17.5562 7.15299C19.9459 7.26451 20.5353 7.40789 21.523 7.32824C21.523 7.32824 19.8343 10.5782 14.9435 9.3037C15.0709 9.25591 17.3013 8.41156 18.2571 8.23632Z" fill="#DBBB73"/>
<path d="M41.4848 50.7887C41.4848 50.7887 41.7397 50.7887 42.2336 50.7887C42.7115 50.7887 43.4284 50.7568 44.3365 50.6612C45.2446 50.5656 46.3279 50.4222 47.5706 50.1673C47.8732 50.1036 48.2078 50.0399 48.5264 49.9602C48.861 49.8965 49.1955 49.8009 49.5301 49.7053C49.8806 49.6257 50.2151 49.4982 50.5815 49.4026C50.932 49.2911 51.2984 49.1637 51.6649 49.0362C53.1305 48.4946 54.6918 47.7936 56.2531 46.8855C57.8143 45.9774 59.3756 44.8623 60.8094 43.524C62.2272 42.1699 63.5495 40.6246 64.6647 38.9199C65.2223 38.0756 65.7162 37.1834 66.1941 36.2753C66.3056 36.0523 66.4172 35.8293 66.5287 35.6062C66.6402 35.3832 66.7517 35.1602 66.8473 34.9212C66.9429 34.6822 67.0544 34.4592 67.15 34.2202C67.2456 33.9813 67.3571 33.7582 67.4527 33.5192C68.2014 31.6234 68.759 29.6639 69.0777 27.6884C69.1095 27.4495 69.1573 27.1946 69.1892 26.9556C69.221 26.7166 69.237 26.4617 69.2688 26.2228C69.3326 25.7289 69.3326 25.235 69.3644 24.7571C69.3804 24.5181 69.3644 24.2632 69.3644 24.0243C69.3644 23.7853 69.3644 23.5463 69.3644 23.2914C69.3644 23.0525 69.3326 22.8135 69.3166 22.5745C69.3007 22.3355 69.3007 22.0966 69.2688 21.8576C69.0936 19.9618 68.6475 18.1456 68.0421 16.4569C67.4367 14.7842 66.688 13.2388 65.8755 11.8688C65.7799 11.6935 65.6684 11.5342 65.5728 11.359C65.4613 11.1996 65.3657 11.0244 65.2542 10.8651C65.0471 10.5465 64.84 10.2278 64.6169 9.94108C64.1868 9.33569 63.7566 8.79403 63.3265 8.2683C62.4821 7.24871 61.6697 6.38842 60.9846 5.70338C60.2996 5.01834 59.7101 4.50854 59.3118 4.15805C58.9136 3.8235 58.6905 3.63232 58.6905 3.63232L58.6268 3.68012C58.6268 3.68012 58.8339 3.87129 59.2162 4.22178C59.5986 4.5882 60.1562 5.09799 60.8094 5.79897C62.1317 7.18498 63.916 9.27197 65.4613 12.0121C66.226 13.3822 66.9588 14.8957 67.5005 16.5525C68.0581 18.2094 68.4404 19.9937 68.6157 21.8576C68.7909 23.7216 68.6953 25.6492 68.3926 27.5769C68.074 29.5046 67.5323 31.4323 66.7995 33.2803C66.7198 33.5192 66.6083 33.7423 66.5127 33.9653C66.4172 34.1884 66.3216 34.4273 66.21 34.6504C66.1145 34.8734 66.0029 35.1124 65.8914 35.3354C65.7799 35.5584 65.6684 35.7815 65.5569 36.0045C65.1108 36.8967 64.6169 37.7729 64.0753 38.6013C63.0079 40.2741 61.7493 41.8035 60.3633 43.1258C58.9773 44.448 57.4798 45.5632 55.9663 46.4872C54.4528 47.4113 52.9394 48.1282 51.4896 48.6698C50.0399 49.2274 48.6857 49.6098 47.459 49.8965C46.2323 50.1833 45.1649 50.3585 44.2728 50.486C43.3806 50.5975 42.6797 50.6612 42.1858 50.6771C41.7079 50.709 41.453 50.6931 41.453 50.6931C41.453 50.709 41.453 50.7409 41.453 50.7568L41.4848 50.7887Z" fill="#DBBB73"/>
<path d="M60.9049 5.86268C60.9049 5.86268 61.6378 3.31369 57.655 2.02326C53.6722 0.764698 53.6403 0.605386 53.0827 0C53.1146 0 55.0104 7.67884 60.9049 5.86268Z" fill="#DBBB73"/>
<path d="M53.3695 51.7924C53.3695 51.7924 50.8046 50.7409 49.1318 50.5816C49.7053 50.024 51.5055 48.5584 53.5129 49.9762C55.9344 51.6968 56.3964 52.2703 57.5116 52.8279C57.4797 52.8279 53.2261 55.7593 49.0681 50.948C49.2592 50.964 52.2384 51.3782 53.3695 51.7924Z" fill="#DBBB73"/>
<path d="M50.3585 45.4676C50.3585 45.4676 49.4823 48.0165 48.5264 49.3548C49.3548 49.291 51.6649 48.9246 51.9038 46.5668C52.1747 43.6992 52.0631 42.9823 52.3977 41.8034C52.3977 41.7874 46.997 42.9664 48.2078 49.1636C48.3034 49.0043 49.9284 46.5509 50.3744 45.4676H50.3585Z" fill="#DBBB73"/>
<path d="M61.4466 48.0643C61.4466 48.0643 58.1648 47.5226 56.1734 47.7935C56.6672 46.9969 58.3241 44.8621 61.0643 45.9454C64.3779 47.2837 65.0948 47.8253 66.5605 48.1758C66.5127 48.1758 62.3865 52.6366 56.2052 48.2236C56.4283 48.1917 59.9969 47.8731 61.4466 48.0643Z" fill="#DBBB73"/>
<path d="M56.0619 41.6281C56.0619 41.6281 55.8229 44.7666 55.1219 46.5509C56.0459 46.2641 58.6427 45.2286 58.1807 42.4725C57.6231 39.1269 57.2408 38.3144 57.2726 36.8966C57.2408 36.8806 51.41 39.6526 54.6918 46.4075C54.7555 46.2004 55.9026 42.9663 56.0619 41.6122V41.6281Z" fill="#DBBB73"/>
<path d="M67.9465 41.5172C67.9465 41.5172 64.5373 41.7243 62.6414 42.4412C62.9282 41.565 63.9956 39.0956 67.0066 39.5417C70.6548 40.0993 71.5311 40.4657 73.0764 40.4816C73.0445 40.4976 70.0813 45.7708 62.8008 42.8554C63.0079 42.7757 66.4809 41.6605 67.9625 41.5172H67.9465Z" fill="#DBBB73"/>
<path d="M60.8572 36.4508C60.8572 36.4508 61.4944 39.5574 61.2555 41.4532C62.0998 40.9593 64.3939 39.3662 63.1831 36.8013C61.7015 33.6629 61.0961 32.9778 60.7138 31.5918C60.666 31.5918 55.7592 35.5905 60.7775 41.4373C60.7775 41.2302 61.0483 37.8209 60.8412 36.4508H60.8572Z" fill="#DBBB73"/>
<path d="M72.1046 33.5671C72.1046 33.5671 68.775 34.507 67.0703 35.6222C67.1181 34.6982 67.5164 32.0536 70.623 31.8465C74.4146 31.5916 75.3705 31.7669 76.9318 31.4482C76.9318 31.4801 75.3546 37.2631 67.3252 35.9886C67.5164 35.8612 70.6549 34.0291 72.1046 33.5671Z" fill="#DBBB73"/>
<path d="M63.6929 30.1578C63.6929 30.1578 65.1745 33.0573 65.4454 34.9531C66.1463 34.284 68.0103 32.2448 66.0986 29.9826C63.7726 27.2424 62.976 26.7008 62.1954 25.4263C62.1476 25.4263 58.4516 30.3968 64.9674 35.0169C64.9356 34.8097 64.2824 31.4323 63.677 30.1419L63.6929 30.1578Z" fill="#DBBB73"/>
<path d="M73.8411 25.2829C73.8411 25.2829 70.8301 26.9716 69.4919 28.4373C69.2688 27.5292 68.8705 24.8687 71.8656 23.9288C75.5139 22.8136 76.5335 22.7658 77.9513 22.0967C77.9673 22.1285 78.1744 28.1346 69.8423 28.7241C69.9857 28.5647 72.5506 26.0476 73.8251 25.267L73.8411 25.2829Z" fill="#DBBB73"/>
<path d="M64.5373 23.9127C64.5373 23.9127 66.8791 26.382 67.6916 28.1822C68.1855 27.3857 69.3963 24.9641 66.8473 23.2117C63.7088 21.0929 62.7689 20.7424 61.6219 19.6909C61.59 19.7068 59.503 25.3784 67.2615 28.3734C67.1659 28.1822 65.5091 25.0438 64.5373 23.9286V23.9127Z" fill="#DBBB73"/>
<path d="M72.5188 16.9347C72.5188 16.9347 70.3362 19.0376 69.5397 20.6148C69.0936 19.8501 67.9784 17.6038 70.3681 16.1541C73.2835 14.4176 74.1597 14.1627 75.2271 13.2705C75.259 13.2864 77.2026 18.5437 69.938 20.806C70.0335 20.6307 71.5948 17.8906 72.5029 16.9347H72.5188Z" fill="#DBBB73"/>
<path d="M63.8841 17.6518C63.8841 17.6518 66.6561 19.3564 67.8828 20.7584C68.1059 19.9459 68.5041 17.5722 65.7321 16.5526C62.3547 15.3259 61.4307 15.2303 60.1243 14.5293C60.1243 14.5612 59.8376 19.9618 67.5483 20.9974C67.4049 20.8381 65.063 18.4165 63.8841 17.6359V17.6518Z" fill="#DBBB73"/>
<path d="M68.775 10.6259C68.775 10.6259 67.612 12.6014 67.373 13.9237C66.8473 13.4139 65.4931 11.8845 66.9588 10.387C68.759 8.57082 69.3644 8.22033 69.9539 7.37598C69.9857 7.37598 72.7578 11.072 67.7235 14.0034C67.7554 13.86 68.313 11.5022 68.775 10.6259Z" fill="#DBBB73"/>
<path d="M62.3547 12.6014C62.3547 12.6014 64.8559 13.4457 66.1304 14.306C66.1145 13.6528 65.8596 11.7729 63.5177 11.4543C60.666 11.072 59.9331 11.1357 58.7702 10.833C58.7702 10.833 59.7738 15.0229 65.9233 14.545C65.7799 14.4494 63.438 12.9837 62.3547 12.5854V12.6014Z" fill="#DBBB73"/>
<path d="M64.4895 5.70331C64.4895 5.70331 63.9797 7.47167 64.0593 8.58685C63.5336 8.2523 62.0998 7.21677 62.976 5.78296C64.0434 4.04646 64.4576 3.68004 64.7444 2.89941C64.7603 2.89941 67.835 5.48027 64.362 8.60278C64.362 8.47533 64.3142 6.48393 64.4895 5.71924V5.70331Z" fill="#DBBB73"/>
<path d="M59.6942 8.23632C59.6942 8.23632 61.9086 8.55494 63.1194 9.08067C62.976 8.55494 62.3706 7.07334 60.3952 7.15299C58.0055 7.26451 57.416 7.40789 56.4124 7.32824C56.4124 7.32824 58.1011 10.5782 62.9919 9.3037C62.8486 9.25591 60.6341 8.41156 59.6782 8.23632H59.6942Z" fill="#DBBB73"/>
</g>
<defs>
<clipPath id="clip0_73_487">
<rect width="77.9513" height="53.72" fill="white"/>
</clipPath>
</defs>
</svg>
