<svg width="50" height="50" viewBox="0 0 50 50" fill="none" xmlns="http://www.w3.org/2000/svg">
<path d="M42.8143 27.6382C42.4514 27.6382 42.1546 27.3413 42.1546 26.9784V17.7418C42.1546 16.6532 41.2639 15.7625 40.1753 15.7625H8.50671C8.16363 15.7625 7.87993 15.5052 7.84694 15.1621C7.81396 14.8256 8.04487 14.5155 8.38135 14.4496L36.0913 9.17146C36.1309 9.16487 37.4307 8.88777 38.4401 9.69927C39.1526 10.2733 39.5155 11.2035 39.5155 12.4571C39.5155 12.8199 39.2186 13.1168 38.8557 13.1168C38.4929 13.1168 38.196 12.8199 38.196 12.4571C38.196 11.6258 38.0047 11.0452 37.622 10.7351C37.114 10.3194 36.3618 10.4646 36.3552 10.4646L15.4936 14.443H40.1753C41.9962 14.443 43.4741 15.9208 43.4741 17.7418V26.9784C43.4741 27.3413 43.1772 27.6382 42.8143 27.6382Z" fill="#F7F1E4"/>
<path d="M40.1757 44.7918H8.50712C6.68618 44.7918 5.20831 43.314 5.20831 41.493V15.1026C5.20831 13.1958 6.77855 11.9225 8.33558 11.5003L28.1086 5.5624C28.2736 5.48983 30.2793 4.7311 31.6977 5.68776C32.5027 6.23536 32.9117 7.17882 32.9117 8.50494C32.9117 8.86781 32.6148 9.1647 32.2519 9.1647C31.8891 9.1647 31.5922 8.86781 31.5922 8.50494C31.5922 7.64725 31.3811 7.06666 30.9588 6.78296C30.2397 6.29474 28.9399 6.65101 28.5375 6.80935L8.69845 12.7604C7.64283 13.0441 6.52784 13.8952 6.52784 15.096V41.493C6.52784 42.5816 7.41851 43.4723 8.50712 43.4723H40.1757C41.2643 43.4723 42.155 42.5816 42.155 41.493V34.8954C42.155 34.5325 42.4519 34.2356 42.8147 34.2356C43.1776 34.2356 43.4745 34.5325 43.4745 34.8954V41.493C43.4745 43.314 41.9966 44.7918 40.1757 44.7918Z" fill="#F7F1E4"/>
<path d="M43.4747 32.916H28.96C28.2342 32.916 27.6404 32.3222 27.6404 31.5965V27.6379C27.6404 26.9121 28.2342 26.3184 28.96 26.3184H43.4747C44.2005 26.3184 44.7942 26.9121 44.7942 27.6379V31.5965C44.7942 32.3222 44.2005 32.916 43.4747 32.916ZM28.96 27.6379V31.5965H43.4747V27.6379H28.96Z" fill="#F7F1E4"/>
<path d="M30.9516 30.277C30.5887 30.277 30.2918 29.9801 30.2918 29.6173C30.2918 29.2544 30.5821 28.9575 30.945 28.9575H30.9516C31.3144 28.9575 31.6113 29.2544 31.6113 29.6173C31.6113 29.9801 31.3144 30.277 30.9516 30.277Z" fill="#F7F1E4"/>
</svg>
