<svg width="48" height="48" viewBox="0 0 48 48" fill="none" xmlns="http://www.w3.org/2000/svg">
<path d="M8.66582 43.9929H4.66655C4.29995 43.9929 4 43.6929 4 43.3263C4 42.9597 4.29995 42.6598 4.66655 42.6598H8.66582C9.03242 42.6598 9.33237 42.3598 9.33237 41.9932V27.3292C9.33237 26.9626 9.03242 26.6627 8.66582 26.6627H4.66655C4.29995 26.6627 4 26.3627 4 25.9961C4 25.6295 4.29995 25.3296 4.66655 25.3296H8.66582C9.76562 25.3296 10.6655 26.2294 10.6655 27.3292V41.9932C10.6655 43.093 9.76562 43.9929 8.66582 43.9929Z" fill="#F7F1E4"/>
<path d="M26.6626 42.6597C22.5367 42.6597 16.5911 39.3803 16.3378 39.2403C16.3378 39.2403 15.0847 38.6604 12.6652 38.6604C12.2986 38.6604 11.9986 38.3604 11.9986 37.9938C11.9986 37.6272 12.2986 37.3273 12.6652 37.3273C15.458 37.3273 16.9044 38.0338 16.9644 38.0672C17.0511 38.1138 22.8833 41.3266 26.6626 41.3266C31.0219 41.3266 32.9415 40.1135 32.9615 40.1001L41.9732 34.4878C42.2998 34.3012 42.5198 34.0079 42.6131 33.668C42.7064 33.3214 42.6597 32.9614 42.4798 32.6548C42.1132 32.0149 41.2933 31.8016 40.6601 32.1682L32.9548 35.9209C31.4884 36.6541 30.0954 36.6541 27.3292 36.6541C24.563 36.6541 20.7171 36.0075 20.5571 35.9809C20.1971 35.9209 19.9505 35.5743 20.0105 35.2143C20.0705 34.8544 20.4104 34.6078 20.777 34.6678C20.817 34.6678 24.7563 35.3277 27.3359 35.3277C29.9154 35.3277 31.1752 35.3277 32.3683 34.7344L40.0402 31.0018C40.6135 30.6685 41.3333 30.5752 42.0199 30.7552C42.7064 30.9418 43.2796 31.3817 43.6396 31.9949C43.9995 32.6081 44.0928 33.328 43.9062 34.0212C43.7196 34.7078 43.2796 35.281 42.6664 35.6409L33.688 41.2266C33.6147 41.2732 31.4818 42.6597 26.6693 42.6597H26.6626Z" fill="#F7F1E4"/>
<path d="M31.3285 33.9945C31.1552 33.9945 30.9885 33.9279 30.8552 33.8012C30.8419 33.7879 30.342 33.328 29.3288 33.328H25.3296C24.1098 33.328 22.7234 32.2948 21.2636 31.195C20.0972 30.3218 18.7774 29.3287 17.9975 29.3287H12.6652C12.2986 29.3287 11.9986 29.0288 11.9986 28.6622C11.9986 28.2956 12.2986 27.9956 12.6652 27.9956H17.9975C19.2173 27.9956 20.6037 29.0288 22.0635 30.1286C23.2299 31.0017 24.5497 31.9949 25.3296 31.9949H29.3288C30.8952 31.9949 31.7084 32.7681 31.8017 32.8547C32.0617 33.1147 32.0617 33.5346 31.8017 33.7946C31.6684 33.9279 31.5018 33.9879 31.3285 33.9879V33.9945Z" fill="#F7F1E4"/>
<path d="M6.33299 40.6598C5.77976 40.6598 5.33318 40.2132 5.33318 39.66C5.33318 39.1067 5.77976 38.6602 6.33299 38.6602C6.88623 38.6602 7.33281 39.1067 7.33281 39.66C7.33281 40.2132 6.88623 40.6598 6.33299 40.6598ZM6.33299 39.3267C6.14636 39.3267 5.99972 39.4733 5.99972 39.66C5.99972 39.8466 6.14636 39.9932 6.33299 39.9932C6.51963 39.9932 6.66627 39.8466 6.66627 39.66C6.66627 39.4733 6.51963 39.3267 6.33299 39.3267Z" fill="#F7F1E4"/>
<path d="M30.6619 26.6626C30.5486 26.6626 30.442 26.6359 30.342 26.5826C22.7567 22.4433 18.6641 15.6379 18.6641 11.332C18.6641 7.28607 21.9502 4 25.9961 4C27.0159 4 28.0024 4.20663 28.9356 4.61322C29.2755 4.75986 29.4288 5.15312 29.2822 5.49306C29.1355 5.833 28.7423 5.98631 28.4023 5.83967C27.6425 5.50639 26.8359 5.33976 26.0028 5.33976C22.6967 5.33976 20.0039 8.0326 20.0039 11.3387C20.0039 15.2513 23.9831 21.4702 30.6686 25.2428C37.354 21.4702 41.3333 15.258 41.3333 11.3387C41.3333 8.0326 38.6405 5.33976 35.3344 5.33976C33.0082 5.33976 30.8752 6.69951 29.8954 8.8058C29.7421 9.13907 29.3422 9.28571 29.0089 9.12574C28.6756 8.97243 28.529 8.5725 28.6889 8.23923C29.8887 5.66637 32.5016 4 35.3411 4C39.387 4 42.6731 7.28607 42.6731 11.332C42.6731 15.6379 38.5805 22.4433 30.9952 26.5826C30.8952 26.6359 30.7886 26.6626 30.6753 26.6626H30.6619Z" fill="#F7F1E4"/>
<path d="M39.1003 10.6653C38.827 10.6653 38.567 10.492 38.4737 10.2187C38.1404 9.27889 37.3872 8.51902 36.4474 8.19242C36.1008 8.07244 35.9208 7.68584 36.0408 7.33924C36.1675 6.99264 36.5407 6.81267 36.894 6.93265C38.2271 7.40589 39.2602 8.43904 39.7335 9.77213C39.8535 10.1187 39.6735 10.4987 39.3269 10.6253C39.2536 10.652 39.1802 10.6653 39.1069 10.6653H39.1003Z" fill="#F7F1E4"/>
</svg>
