<svg width="48" height="48" viewBox="0 0 48 48" fill="none" xmlns="http://www.w3.org/2000/svg">
<path d="M17.0333 42.9999H13.2333C11.4853 42.9999 10.0666 41.5812 10.0666 39.8332V17.0332C10.0666 16.6849 10.3516 16.3999 10.7 16.3999H34.7666C35.115 16.3999 35.4 16.6849 35.4 17.0332C35.4 17.3816 35.115 17.6666 34.7666 17.6666H11.3333V39.8332C11.3333 40.8782 12.1883 41.7332 13.2333 41.7332H16.4V19.5666C16.4 19.2182 16.685 18.9332 17.0333 18.9332C17.3816 18.9332 17.6666 19.2182 17.6666 19.5666V42.3666C17.6666 42.7149 17.3816 42.9999 17.0333 42.9999Z" fill="#F7F1E4"/>
<path d="M34.7667 42.9999H19.5667C19.2184 42.9999 18.9334 42.7149 18.9334 42.3666C18.9334 42.0182 19.2184 41.7332 19.5667 41.7332H34.7667C35.8117 41.7332 36.6667 40.8782 36.6667 39.8332V17.0332C36.6667 16.6849 36.9517 16.3999 37.3 16.3999C37.6484 16.3999 37.9334 16.6849 37.9334 17.0332V39.8332C37.9334 41.5812 36.5147 42.9999 34.7667 42.9999Z" fill="#F7F1E4"/>
<path d="M39.8333 25.2667C39.485 25.2667 39.2 24.9817 39.2 24.6333C39.2 24.285 39.485 24 39.8333 24C40.8783 24 41.7333 23.145 41.7333 22.1V8.16667C41.7333 7.12167 40.8783 6.26667 39.8333 6.26667H8.16667C7.12167 6.26667 6.26667 7.12167 6.26667 8.16667V22.1C6.26667 23.145 7.12167 24 8.16667 24C8.515 24 8.8 24.285 8.8 24.6333C8.8 24.9817 8.515 25.2667 8.16667 25.2667C6.41867 25.2667 5 23.848 5 22.1V8.16667C5 6.41867 6.41867 5 8.16667 5H39.8333C41.5813 5 43 6.41867 43 8.16667V22.1C43 23.848 41.5813 25.2667 39.8333 25.2667Z" fill="#F7F1E4"/>
<path d="M39.8334 20.2C39.4851 20.2 39.2001 19.915 39.2001 19.5667V15.1334H8.80008V19.5667C8.80008 19.915 8.51508 20.2 8.16675 20.2C7.81842 20.2 7.53342 19.915 7.53342 19.5667V14.5C7.53342 14.1517 7.81842 13.8667 8.16675 13.8667H39.8334C40.1818 13.8667 40.4668 14.1517 40.4668 14.5V19.5667C40.4668 19.915 40.1818 20.2 39.8334 20.2Z" fill="#F7F1E4"/>
<path d="M37.9336 11.3331C37.2369 11.3331 36.6669 10.7631 36.6669 10.0665C36.6669 9.3698 37.2369 8.7998 37.9336 8.7998C38.6302 8.7998 39.2002 9.3698 39.2002 10.0665C39.2002 10.7631 38.6302 11.3331 37.9336 11.3331Z" fill="#F7F1E4"/>
<path d="M33.5001 10.6998H27.1668C26.8184 10.6998 26.5334 10.4148 26.5334 10.0664C26.5334 9.71811 26.8184 9.43311 27.1668 9.43311H33.5001C33.8484 9.43311 34.1334 9.71811 34.1334 10.0664C34.1334 10.4148 33.8484 10.6998 33.5001 10.6998Z" fill="#F7F1E4"/>
<path d="M22.0999 40.4664C21.7516 40.4664 21.4666 40.1814 21.4666 39.8331V19.5664C21.4666 19.2181 21.7516 18.9331 22.0999 18.9331C22.4483 18.9331 22.7333 19.2181 22.7333 19.5664V39.8331C22.7333 40.1814 22.4483 40.4664 22.0999 40.4664Z" fill="#F7F1E4"/>
<path d="M28.4335 37.9331C28.0851 37.9331 27.8001 37.6481 27.8001 37.2998V28.4331C27.8001 28.0848 28.0851 27.7998 28.4335 27.7998C28.7818 27.7998 29.0668 28.0848 29.0668 28.4331V37.2998C29.0668 37.6481 28.7818 37.9331 28.4335 37.9331Z" fill="#F7F1E4"/>
<path d="M28.4335 26.5335C28.0851 26.5335 27.8001 26.2485 27.8001 25.9002V20.8335C27.8001 20.4852 28.0851 20.2002 28.4335 20.2002C28.7818 20.2002 29.0668 20.4852 29.0668 20.8335V25.9002C29.0668 26.2485 28.7818 26.5335 28.4335 26.5335Z" fill="#F7F1E4"/>
<path d="M30.9664 37.9333C30.6181 37.9333 30.3331 37.6483 30.3331 37.2999V25.8999C30.3331 25.5516 30.6181 25.2666 30.9664 25.2666C31.3148 25.2666 31.5998 25.5516 31.5998 25.8999V37.2999C31.5998 37.6483 31.3148 37.9333 30.9664 37.9333Z" fill="#F7F1E4"/>
</svg>
