<svg width="85" height="27" viewBox="0 0 85 27" fill="none" xmlns="http://www.w3.org/2000/svg">
<g clip-path="url(#clip0_73_552)">
<path d="M84.0119 9.51424C82.6048 5.29269 77.8161 2.39431 73.6576 1.70122C67.7558 0.714092 62.5891 2.89838 58.4936 7.11993C58.0315 7.58199 57.4855 9.55625 58.5356 8.48511C63.1352 3.73849 69.478 2.24729 75.6529 4.6206C80.0634 6.32182 84.285 10.9004 82.8988 15.9201C81.4286 21.2758 75.2958 22.4099 70.6122 21.5068C72.3974 19.7006 73.8256 17.4953 74.6447 15.227C75.0438 14.1138 73.3005 15.563 73.1115 16.0881C72.3134 18.3354 71.0743 20.0366 69.5411 21.2758C63.7233 19.7006 58.3676 16.0671 53.2639 13.0007C46.543 8.94717 39.8642 4.17954 32.5132 1.36518C28.3757 -0.231032 23.8181 -0.567076 19.6385 1.05014C18.4834 1.49119 17.3702 2.14228 16.3621 2.94038C15.375 2.68835 14.3458 2.49933 13.3377 2.39431C5.86072 1.63821 -1.86829 9.89229 1.19811 17.2223C2.98334 21.5068 7.75097 23.8591 12.0775 24.5942C17.6643 25.5393 22.936 22.872 26.7164 18.9445C27.3885 18.2514 27.5566 16.8022 26.4434 17.9363C21.6968 22.83 15.0809 24.1742 8.88512 21.4018C4.62156 19.5115 1.00909 15.038 2.35326 10.2073C3.84446 4.78862 9.78823 3.73849 14.4928 4.66261C12.7706 6.48985 11.4054 8.69514 10.6073 10.9004C10.1033 12.2866 11.5945 10.8584 11.8255 10.2703C12.6656 7.96004 13.9888 6.21681 15.648 4.95665C21.7388 6.63687 27.3675 10.5434 32.7022 13.7778C41.8384 19.3015 54.4401 29.9709 65.8656 24.9093C66.8107 24.4892 67.7138 23.9641 68.5749 23.334C69.457 23.5651 70.3602 23.7751 71.2633 23.9011C78.8033 25.0143 86.5323 17.0122 84.033 9.53524L84.0119 9.51424ZM51.7937 22.1579C43.8547 18.7765 36.5877 13.3577 29.1738 8.98917C25.7293 6.97291 22.0748 4.76762 18.1893 3.46545C22.4529 1.63821 27.8716 2.01626 32.4082 3.75949C40.4312 6.84689 47.7822 12.4336 55.1332 16.8022C58.8927 19.0285 62.8412 21.4438 67.0627 22.851C62.5261 24.8883 56.6244 24.1952 51.8147 22.1579H51.7937Z" fill="#DBBB73"/>
</g>
<defs>
<clipPath id="clip0_73_552">
<rect width="83.99" height="26.2114" fill="white" transform="translate(0.505005)"/>
</clipPath>
</defs>
</svg>
