<svg width="114" height="48" viewBox="0 0 114 48" fill="none" xmlns="http://www.w3.org/2000/svg">
<path fill-rule="evenodd" clip-rule="evenodd" d="M32.8126 33.1945C32.1553 32.804 31.6011 32.1661 31.1372 31.3265L17.7273 0H17.302C17.302 0.286384 17.2054 0.722468 17.0185 1.29524C16.8252 1.868 16.6125 2.4603 16.3741 3.07212C16.1357 3.67743 15.9166 4.19813 15.7104 4.63421C15.6154 4.83195 15.5396 4.99246 15.4823 5.11382L15.4822 5.1141L15.4821 5.11422C15.415 5.25627 15.3733 5.34462 15.3559 5.3762L4.369 31.32C3.90503 32.1661 3.34441 32.7975 2.68713 33.1945C1.90741 33.6566 1.15991 33.8909 0.431745 33.8909H0V34.3726H9.74325V33.8909H9.31795C8.93776 33.8909 8.56401 33.7738 8.20315 33.5329C7.83584 33.2921 7.57809 32.9472 7.41699 32.4981C7.29455 32.1466 7.28811 31.7365 7.39766 31.2679L10.4779 23.4705H22.7343L25.5374 30.8644H25.5245C25.9047 31.8277 25.8596 32.5696 25.3827 33.0969C24.9059 33.6241 24.3517 33.8909 23.7202 33.8909H23.2949V34.3726H35.4611V33.8909H35.0809C34.3527 33.8909 33.5988 33.6566 32.8255 33.1945H32.8126ZM22.1092 21.8368H11.1248L16.7285 7.65426L22.1092 21.8368ZM57.5508 29.9009C56.8871 30.7991 56.0558 31.4955 55.057 31.9902C54.0582 32.4849 52.8145 32.7322 51.326 32.7322H44.6242V8.6369C44.6242 7.90141 44.8949 7.28308 45.4297 6.78842C45.971 6.29376 46.6154 6.04642 47.3758 6.04642H47.9493V5.56478H36.9688V6.04642H37.5359C38.2963 6.04642 38.9407 6.29376 39.4627 6.78842C39.9846 7.28308 40.2617 7.90141 40.2939 8.6369V31.2938C40.2617 31.9967 39.9975 32.6085 39.5078 33.1162C39.018 33.6304 38.393 33.8842 37.6326 33.8842H36.9688V34.3659H57.3059L59.6322 26.8288H59.1553C58.7429 27.9808 58.2081 29.0027 57.5379 29.9009H57.5508ZM73.1387 31.3003C73.1709 32.0032 73.448 32.6085 73.9699 33.1227H73.9764C74.4983 33.6369 75.1234 33.8908 75.8516 33.8908H76.4251V34.3724H65.4961V33.8908H66.0696C66.83 33.8908 67.468 33.6304 67.9706 33.1227C68.4732 32.615 68.7439 32.0032 68.7761 31.3003V22.1034L60.1541 8.44814H60.1219C59.645 7.71266 59.0328 7.12687 58.2918 6.6973C57.5507 6.26121 56.7195 6.04642 55.798 6.04642H55.2245V5.56478H67.3906V6.04642H66.8687C66.1727 6.04642 65.6766 6.3263 65.3737 6.88605C65.0773 7.43278 65.0837 7.97952 65.3737 8.53927L71.9787 20.307L78.9575 8.54577C79.2733 7.95348 79.2797 7.39373 78.9575 6.86652C78.6289 6.3263 78.1263 6.05293 77.4625 6.05293H76.889V5.57129H86.9158V6.05293H86.3423C85.4595 6.05293 84.6347 6.30026 83.8743 6.7754C83.1139 7.25054 82.5146 7.81029 82.07 8.45465H82.0378L73.1387 22.1685V31.3003ZM113.626 33.8906C112.995 33.8906 112.325 33.6693 111.629 33.2202C110.933 32.7711 110.346 32.0226 109.869 30.9617H109.824L97.845 4.7055H97.4648C97.4326 5.02442 97.3166 5.46051 97.1104 6.00073C96.9042 6.54747 96.6851 7.10722 96.4467 7.67998C96.2082 8.25926 95.9956 8.76043 95.8023 9.19001C95.6154 9.61958 95.4994 9.87342 95.4672 9.932L85.6788 31.1309C85.1891 32.0942 84.622 32.7906 83.9647 33.2137C83.2688 33.6628 82.605 33.8841 81.9671 33.8841H81.5869V34.3658H90.8082V33.8841H90.428C89.8545 33.8841 89.3519 33.6303 88.9072 33.1161C88.5335 32.68 88.4433 32.1007 88.6366 31.3652L91.1755 25.3382H102.478L104.966 31.3978C105.146 32.1137 105.056 32.6865 104.688 33.1161C104.244 33.6303 103.754 33.8841 103.213 33.8841H102.833V34.3658H114V33.8841H113.62L113.626 33.8906ZM91.8457 23.763L96.9042 11.7544L101.834 23.763H91.8457ZM16.7413 47.3752L16.7091 47.2646L15.0594 42.6239H14.5761L16.5286 47.922H16.9539L18.9064 42.6239H18.4231L16.7735 47.2646L16.7413 47.3752ZM22.1348 47.922H21.6904V42.6239H22.1348V47.922ZM28.5143 47.5445H25.9238V47.538V42.6239H25.4792V47.922H28.5143V47.5445ZM31.7235 47.5445H34.314V47.922H31.2789V42.6239H31.7235V47.538V47.5445ZM37.6003 46.4315H39.9782H39.9846L40.5259 47.922H40.9834L38.9987 42.6239H38.5798L36.5951 47.922H37.059L37.6003 46.4315ZM39.8364 46.054H37.7357L38.786 43.1706L39.8364 46.054ZM46.6352 46.6202C46.6352 46.3273 46.5321 46.0929 46.3324 45.9237C46.1262 45.7545 45.7524 45.5918 45.2111 45.4356C44.6698 45.2794 44.2703 45.1166 44.0254 44.9344C43.671 44.6806 43.4906 44.3421 43.4906 43.9255C43.4906 43.509 43.6581 43.1901 43.9868 42.9362C44.3154 42.6824 44.7407 42.5587 45.2498 42.5587C45.5978 42.5587 45.9071 42.6238 46.1842 42.7605C46.4612 42.8972 46.6739 43.0859 46.8221 43.3267C46.9703 43.5676 47.0476 43.8409 47.0476 44.1403H46.603C46.603 43.7758 46.4806 43.4895 46.2357 43.2682C45.9908 43.0469 45.6622 42.9362 45.2498 42.9362C44.8374 42.9362 44.5281 43.0273 44.2896 43.2096C44.0512 43.3918 43.9352 43.6261 43.9352 43.919C43.9352 44.1859 44.0448 44.4072 44.2574 44.5764C44.4701 44.7456 44.8116 44.8953 45.282 45.0255C45.7524 45.1557 46.1068 45.2924 46.3517 45.4291C46.5966 45.5657 46.777 45.735 46.8994 45.9302C47.0219 46.1255 47.0863 46.3533 47.0863 46.6202C47.0863 47.0367 46.9188 47.3687 46.5901 47.6225C46.2615 47.8763 45.8233 48 45.282 48C44.9147 48 44.5732 47.9349 44.2639 47.7982C43.9546 47.6681 43.7226 47.4793 43.5615 47.2385C43.4004 46.9977 43.3231 46.7243 43.3231 46.4119H43.7677C43.7677 46.7829 43.903 47.0823 44.1801 47.2971C44.4572 47.5119 44.8245 47.6225 45.282 47.6225C45.688 47.6225 46.0166 47.5314 46.2679 47.3491C46.5192 47.1669 46.6417 46.9261 46.6417 46.6267L46.6352 46.6202ZM54.456 45.0303C54.2506 44.7772 54.0965 44.5501 54.0001 44.3489C53.9034 44.1471 53.8583 43.9518 53.8583 43.7566C53.8583 43.3856 53.9679 43.0927 54.1869 42.8779C54.406 42.6631 54.696 42.5525 55.0633 42.5525C55.3984 42.5525 55.6691 42.6501 55.8753 42.8454C56.0815 43.0406 56.1846 43.288 56.1846 43.5874C56.1846 43.9388 55.9848 44.2773 55.5853 44.6157L55.0118 45.0648L56.4552 46.7571C56.6743 46.3991 56.7839 45.9956 56.7839 45.5465H57.1834C57.1834 46.1453 57.0287 46.653 56.7194 47.0695L57.4347 47.9157H56.9192L56.4681 47.382C56.2812 47.5707 56.0621 47.7204 55.8108 47.8245C55.5595 47.9287 55.3018 47.9873 55.0247 47.9873C54.522 47.9873 54.129 47.8571 53.839 47.5967C53.549 47.3364 53.4008 46.9914 53.4008 46.5619C53.4008 46.308 53.4781 46.0607 53.6263 45.8329C53.7745 45.6051 54.0387 45.3447 54.4189 45.0583L54.456 45.0303ZM55.6562 47.4796C55.45 47.5772 55.2373 47.6228 55.0182 47.6228C54.6509 47.6228 54.3609 47.5317 54.1418 47.3364C53.9292 47.1411 53.8196 46.8873 53.8196 46.5684C53.8196 46.2039 54.0581 45.8329 54.5285 45.4423L54.696 45.3122L54.7476 45.3642L56.2104 47.0825C56.0428 47.2518 55.8624 47.3885 55.6562 47.4796ZM54.7733 44.785C54.4512 44.3814 54.2901 44.0299 54.2901 43.7371L54.2965 43.7436C54.2965 43.5027 54.3609 43.301 54.5027 43.1513C54.638 43.0016 54.8249 42.9235 55.0633 42.9235C55.276 42.9235 55.45 42.982 55.5788 43.1122C55.7077 43.2424 55.7722 43.3986 55.7722 43.5874C55.7722 43.7631 55.7271 43.9258 55.624 44.056C55.5209 44.1862 55.3984 44.3098 55.2438 44.4205L54.7733 44.785ZM67.7195 47.922H67.2749V45.3836H64.2784V47.922H63.8338V42.6239H64.2784V44.9996H67.2749V42.6239H67.7195V47.922ZM74.5888 46.8417C74.7563 46.4772 74.8401 46.0477 74.8401 45.5595H74.8337V44.9282C74.8272 44.453 74.737 44.0365 74.5695 43.6785C74.4019 43.3205 74.1635 43.0406 73.8542 42.8454C73.5449 42.6501 73.1905 42.5525 72.7845 42.5525C72.3785 42.5525 72.0241 42.6501 71.7148 42.8519C71.4055 43.0536 71.1671 43.34 70.9995 43.711C70.832 44.082 70.7482 44.5116 70.7482 44.9932V45.54C70.7482 46.2885 70.9415 46.8873 71.3153 47.3299C71.689 47.7725 72.1852 47.9938 72.7974 47.9938C73.2034 47.9938 73.5642 47.8961 73.8735 47.6944C74.1828 47.4926 74.4213 47.2127 74.5888 46.8417ZM73.9702 43.4897C74.2537 43.8477 74.3955 44.3489 74.3955 44.9867V45.5465C74.3955 46.1974 74.2537 46.6985 73.9766 47.063C73.6995 47.4275 73.3 47.6098 72.8038 47.6098C72.3076 47.6098 71.921 47.421 71.631 47.0565C71.3411 46.692 71.1993 46.1908 71.1993 45.566V45.0128C71.1993 44.3684 71.3411 43.8607 71.631 43.4962C71.921 43.1317 72.3012 42.9495 72.7974 42.9495C73.2936 42.9495 73.6867 43.1317 73.9702 43.4897ZM81.3357 43.0014H79.5378V47.9155H79.0932V43.0014H77.3018V42.6239H81.3357V43.0014ZM84.5382 45.3836H86.9933V45.3771V44.9996H84.5382V43.0014H87.3413V42.6239H84.1V47.922H87.3606V47.5445H84.5382V45.3836ZM90.6536 47.5445H93.244V47.922H90.209V42.6239H90.6536V47.538V47.5445ZM98.676 45.9237C98.8757 46.0929 98.9788 46.3273 98.9788 46.6202L98.9853 46.6267C98.9853 46.9261 98.8628 47.1669 98.6115 47.3491C98.3602 47.5314 98.0316 47.6225 97.6256 47.6225C97.1681 47.6225 96.8008 47.5119 96.5237 47.2971C96.2466 47.0823 96.1113 46.7829 96.1113 46.4119H95.6667C95.6667 46.7243 95.744 46.9977 95.9051 47.2385C96.0662 47.4793 96.2982 47.6681 96.6075 47.7982C96.9168 47.9349 97.2583 48 97.6256 48C98.1669 48 98.6051 47.8763 98.9337 47.6225C99.2624 47.3687 99.4299 47.0367 99.4299 46.6202C99.4299 46.3533 99.3655 46.1255 99.243 45.9302C99.1206 45.735 98.9402 45.5657 98.6953 45.4291C98.4504 45.2924 98.096 45.1557 97.6256 45.0255C97.1552 44.8953 96.8137 44.7456 96.601 44.5764C96.3884 44.4072 96.2788 44.1859 96.2788 43.919C96.2788 43.6261 96.3948 43.3918 96.6332 43.2096C96.8717 43.0273 97.181 42.9362 97.5934 42.9362C98.0058 42.9362 98.3344 43.0469 98.5793 43.2682C98.8242 43.4895 98.9466 43.7758 98.9466 44.1403H99.3913C99.3913 43.8409 99.3139 43.5676 99.1657 43.3267C99.0175 43.0859 98.8048 42.8972 98.5278 42.7605C98.2507 42.6238 97.9414 42.5587 97.5934 42.5587C97.0843 42.5587 96.659 42.6824 96.3304 42.9362C96.0017 43.1901 95.8342 43.509 95.8342 43.9255C95.8342 44.3421 96.0146 44.6806 96.369 44.9344C96.6139 45.1166 97.0134 45.2794 97.5547 45.4356C98.096 45.5918 98.4698 45.7545 98.676 45.9237Z" fill="#F7F1E4"/>
</svg>
