<svg width="68" height="68" viewBox="0 0 68 68" fill="none" xmlns="http://www.w3.org/2000/svg">
<path fill-rule="evenodd" clip-rule="evenodd" d="M38.3505 17.1904C37.5499 17.1904 36.8001 16.9741 36.1562 16.5969C26.6425 16.6049 20.9699 21.883 20.9699 30.7187V31.3185L20.97 31.3339L20.9699 31.3492V42.1816L20.97 42.1969L20.9699 42.2122V45.9268C20.9699 52.966 25.8799 57.876 32.9191 57.876H40.5232C41.1206 57.876 41.6095 58.3649 41.6095 58.9623C41.6095 59.5598 41.1206 60.0486 40.5232 60.0486H32.9191C24.7393 60.0486 18.7973 54.1066 18.7973 45.9268V43.2021C14.0851 42.6856 10.0721 38.8505 9.04244 33.702C8.06478 28.792 2.42691 28.0533 2.3726 28.0533C1.82945 27.9881 1.41666 27.521 1.41666 26.9779V22.6327C1.41666 22.0352 1.90549 21.5464 2.50295 21.5464C7.17402 21.5464 9.56387 22.7305 14.1372 27.2929C15.9461 29.1019 17.7162 29.8 18.8067 30.069C19.0716 20.9838 24.9175 15.1573 34.3266 14.4887C34.1195 13.9818 34.0053 13.4269 34.0053 12.8452C34.0053 10.4445 35.9498 8.5 38.3505 8.5C40.7512 8.5 42.6957 10.4445 42.6957 12.8452C42.6957 13.4367 42.5776 14.0005 42.3638 14.5143C51.8761 15.322 57.9039 21.504 57.9039 30.7187C57.9039 31.3161 57.415 31.805 56.8176 31.805H24.2287C23.6313 31.805 23.1424 31.3161 23.1424 30.7187C23.1424 30.1212 23.6313 29.6324 24.2287 29.6324H55.6987C55.1641 20.2026 47.6741 16.7075 40.5404 16.5994C39.8974 16.9751 39.1492 17.1904 38.3505 17.1904ZM18.7973 32.2837C17.4393 32.0256 15.0044 31.2378 12.5946 28.8354C8.82519 25.066 6.92417 23.9254 3.58925 23.7516V26.0871C5.60975 26.5651 10.1505 28.2054 11.1716 33.2893C12.0997 37.9005 15.5318 40.5436 18.7973 41.029V32.2837ZM36.8621 14.4243H39.8389C40.2595 14.0274 40.5231 13.4656 40.5231 12.8452C40.5231 11.6503 39.5454 10.6726 38.3505 10.6726C37.1555 10.6726 36.1779 11.6503 36.1779 12.8452C36.1779 13.4656 36.4414 14.0274 36.8621 14.4243ZM57.8928 59.8472H47.0407C46.8669 59.8472 46.704 59.8037 46.5519 59.7277C41.4246 57.164 38.7415 53.6444 38.383 48.9842H37.2532C34.8634 48.9842 31.8218 46.4314 31.8218 43.5527C31.8218 40.5111 34.2116 38.1213 37.2532 38.1213H55.7314V35.6574C55.7314 35.0599 56.2202 34.5711 56.8177 34.5711C57.4152 34.5711 57.904 35.0599 57.904 35.6574V38.1213H65.4969C66.0944 38.1213 66.5832 38.6101 66.5832 39.2076V47.8979C66.5832 53.1013 63.9 56.9685 58.3817 59.7277C58.2296 59.8037 58.0666 59.8472 57.8928 59.8472ZM57.8641 40.2939H64.4215V47.8979C64.4215 52.1888 62.2597 55.2956 57.643 57.6746H47.3015C42.6738 55.2956 40.523 52.1888 40.523 47.8979V43.5527C40.523 42.9553 40.0341 42.4665 39.4367 42.4665C38.8392 42.4665 38.3504 42.9553 38.3504 43.5527V46.8116H37.2641C36.1669 46.8116 34.0052 45.3777 34.0052 43.5527C34.0052 41.7278 35.4391 40.2939 37.2641 40.2939H55.7713C55.8995 40.7511 56.321 41.0888 56.8177 41.0888C57.3144 41.0888 57.7359 40.7511 57.8641 40.2939Z" fill="#A08139"/>
</svg>
