<svg width="68" height="68" viewBox="0 0 68 68" fill="none" xmlns="http://www.w3.org/2000/svg">
<path fill-rule="evenodd" clip-rule="evenodd" d="M40.7614 11.7749C40.9313 12.1147 41.2618 12.3036 41.6111 12.3036V12.2941C41.7527 12.2941 41.8943 12.2658 42.0265 12.1997C42.4891 11.9731 42.6779 11.4067 42.4513 10.9346C40.8558 7.68702 37.5799 5.66669 33.9829 5.66669C30.386 5.66669 27.1478 7.66814 25.5334 10.8969C25.3068 11.3595 25.4956 11.9259 25.9582 12.162C26.4208 12.398 26.9873 12.1997 27.2233 11.7371C28.5073 9.15978 31.0846 7.55485 33.9829 7.55485C36.8812 7.55485 39.4775 9.17866 40.7614 11.7749ZM33.9827 50.9919C27.5252 50.9919 25.3067 47.4044 24.1171 45.4785C24.0439 45.3635 23.9765 45.2542 23.9117 45.1492C23.8595 45.0645 23.8089 44.9826 23.7584 44.9026C22.1251 42.4575 21.1905 37.5671 20.8884 35.7545C19.7272 35.3957 18.8869 34.3195 18.8869 33.045V31.1568C18.8869 30.0145 19.6422 28.3246 21.7192 28.3246C22.2384 28.3246 22.6632 28.7494 22.6632 29.2687C22.6632 29.7879 22.2384 30.2127 21.7192 30.2127C20.9545 30.2127 20.7845 30.732 20.7751 31.1663V33.045C20.7751 33.5642 21.1999 33.9891 21.7192 33.9891C22.1912 33.9891 22.5877 34.3384 22.6538 34.801C22.6538 34.8671 23.5884 41.2301 25.335 43.8547C25.4577 44.0435 25.5899 44.2512 25.7315 44.4778C26.8644 46.3187 28.5826 49.0943 33.9922 49.0943C39.3883 49.0943 41.102 46.3325 42.2444 44.4915L42.2529 44.4778L42.3379 44.3413C42.4477 44.1647 42.5516 43.9977 42.6494 43.8547C44.3959 41.2301 45.3211 34.8671 45.3306 34.801C45.3967 34.3384 45.7932 33.9891 46.2652 33.9891C46.7845 33.9891 47.2093 33.5642 47.2093 33.045V31.1568C47.1999 30.732 47.0299 30.2127 46.2652 30.2127C45.746 30.2127 45.3211 29.7879 45.3211 29.2687C45.3211 28.7494 45.746 28.3246 46.2652 28.3246C48.3422 28.3246 49.0975 30.0145 49.0975 31.1568V33.045C49.0975 34.3195 48.2478 35.3957 47.096 35.7545C46.7939 37.5671 45.8593 42.448 44.226 44.9026C44.1127 45.0726 43.99 45.2708 43.8673 45.4785C42.6777 47.4044 40.4591 50.9919 34.0016 50.9919H33.9827ZM37.7782 44.6477L37.7705 44.6477C38.1366 44.6458 38.586 44.5506 39.1093 44.289C39.5814 44.0529 39.7702 43.4865 39.5341 43.0239C39.3076 42.5519 38.7411 42.363 38.2691 42.5991C38.0756 42.6991 37.9435 42.7379 37.8726 42.7587C37.8431 42.7673 37.8242 42.7729 37.8159 42.7784C37.7876 42.7123 37.7498 42.5802 37.7498 42.4952C37.7498 42.3253 37.7121 40.8053 36.5603 40.1917C35.8522 39.8046 34.9837 39.899 33.9735 40.4466C32.9634 39.899 32.0948 39.814 31.3867 40.1917C30.235 40.8053 30.1972 42.3253 30.1972 42.4858C30.1972 42.5263 30.1924 42.573 30.1879 42.6161L30.1879 42.6161L30.1879 42.6162C30.1798 42.6935 30.173 42.7595 30.1972 42.7595C30.2066 42.7595 30.0556 42.7879 29.6874 42.5991C29.2248 42.3725 28.6489 42.5613 28.4223 43.0239C28.1958 43.4865 28.3846 44.0529 28.8472 44.289C29.9801 44.846 30.7259 44.6477 31.1602 44.3834C32.0759 43.8169 32.1042 42.6274 32.1042 42.5046C32.1042 42.2309 32.2175 41.9004 32.2931 41.8532C32.2931 41.8532 32.5952 41.7588 33.4637 42.3347C33.7847 42.5424 34.1907 42.5424 34.5116 42.3347C35.3802 41.7588 35.6823 41.8532 35.6823 41.8532C35.7578 41.9004 35.8711 42.2214 35.8711 42.4952C35.8711 42.6274 35.8994 43.8169 36.8152 44.3834C37.0404 44.5241 37.3588 44.6462 37.7705 44.6477L37.7593 44.6477H37.7782ZM27.3743 33.9985H28.3184C28.3184 34.5177 28.7432 34.9426 29.2625 34.9426C29.7817 34.9426 30.2065 34.5177 30.2065 33.9985H31.1507C31.6699 33.9985 32.0947 33.5737 32.0947 33.0544C32.0947 32.5352 31.6699 32.1103 31.1507 32.1103H29.2625H27.3743C26.8551 32.1103 26.4303 32.5352 26.4303 33.0544C26.4303 33.5737 26.8551 33.9985 27.3743 33.9985ZM36.8152 33.9985H37.7593C37.7593 34.5177 38.1841 34.9426 38.7033 34.9426C39.2226 34.9426 39.6474 34.5177 39.6474 33.9985H40.5915C41.1108 33.9985 41.5356 33.5737 41.5356 33.0544C41.5356 32.5352 41.1108 32.1103 40.5915 32.1103H38.7033H36.8152C36.296 32.1103 35.8711 32.5352 35.8711 33.0544C35.8711 33.5737 36.296 33.9985 36.8152 33.9985ZM33.9828 30.2222C29.1491 30.2222 24.1549 30.2222 21.0395 27.1162C20.8601 26.9368 20.7657 26.7008 20.7657 26.4459V21.65C18.4527 20.3094 16.9894 17.8075 16.9894 15.1169C16.9894 10.9535 20.3786 7.56429 24.542 7.56429C25.0613 7.56429 25.4861 7.98912 25.4861 8.50837C25.4861 9.02761 25.0613 9.45245 24.542 9.45245C21.4171 9.45245 18.8775 11.992 18.8775 15.1169C18.8775 17.2883 20.152 19.2898 22.1157 20.2244C22.4462 20.3849 22.6539 20.7153 22.6539 21.0741V26.0305C25.2406 28.3246 29.489 28.3246 33.9828 28.3246C38.4766 28.3246 42.725 28.3246 45.3118 26.0305V24.671C45.3118 24.1518 45.7366 23.7269 46.2558 23.7269C46.7751 23.7269 47.1999 24.1518 47.1999 24.671V26.4459C47.1999 26.7008 47.0961 26.9368 46.9261 27.1162C43.8201 30.2222 38.8165 30.2222 33.9828 30.2222ZM24.9669 22.5091C25.0896 22.594 28.1012 24.5577 33.9828 24.5577V24.5483C39.7606 24.5483 46.3219 22.0559 46.6618 21.9237C49.2864 20.6775 50.9763 18.0058 50.9763 15.1075C50.9763 10.9441 47.587 7.55484 43.4236 7.55484C42.9044 7.55484 42.4795 7.97968 42.4795 8.49892C42.4795 9.01817 42.9044 9.443 43.4236 9.443C46.5485 9.443 49.0881 11.9826 49.0881 15.1075C49.0881 17.2789 47.8136 19.2803 45.916 20.1866C45.8499 20.2149 39.2319 22.6601 33.9828 22.6601C28.9063 22.6601 26.2227 21.0618 26.0177 20.9397L26.0054 20.9324C25.5711 20.6492 24.9952 20.7625 24.7025 21.1968C24.4193 21.6311 24.5326 22.2164 24.9669 22.5091ZM61.3612 62.3209C60.9647 62.3209 60.5965 62.066 60.4644 61.6789L59.407 58.4879L59.4068 58.4872C58.7366 56.4105 58.2066 54.7682 46.256 54.7682V54.7399C45.8217 54.6549 44.9437 54.2301 42.508 53.0028C41.1957 53.7298 37.3061 55.7123 33.9829 55.7123C30.6598 55.7123 26.7702 53.7298 25.4579 53.0028L22.1347 54.6644C22.0026 54.7305 21.861 54.7682 21.7099 54.7682C9.76876 54.7682 9.23875 56.4105 8.56857 58.4871L8.56832 58.4879L7.51095 61.6789C7.35046 62.1698 6.81234 62.4436 6.31197 62.2737C5.82105 62.1132 5.54727 61.5751 5.7172 61.0747L6.77457 57.9026C7.7753 54.806 9.03092 52.899 21.5022 52.8706L25.0803 51.0769C25.3729 50.9353 25.7128 50.9447 25.9866 51.1147C26.0338 51.143 30.5276 53.8147 34.0018 53.8147C37.476 53.8147 41.9698 51.143 42.0171 51.1147C42.2908 50.9542 42.6401 50.9353 42.9234 51.0769C42.9234 51.0769 45.7273 52.4836 46.5014 52.8612C58.9727 52.8801 60.2283 54.7871 61.2291 57.8931L62.2864 61.0652C62.4469 61.5562 62.1826 62.0943 61.6917 62.2642C61.5973 62.302 61.4934 62.3114 61.3896 62.3114L61.3612 62.3209ZM33.0387 45.3274H34.9268C35.4461 45.3274 35.8709 44.9026 35.8709 44.3834C35.8709 43.8641 35.4461 43.4393 34.9268 43.4393H33.0387C32.5194 43.4393 32.0946 43.8641 32.0946 44.3834C32.0946 44.9026 32.5194 45.3274 33.0387 45.3274ZM29.2813 62.3209C28.7621 62.3209 28.3372 61.896 28.3372 61.3768C28.3372 60.8576 28.7526 60.4327 29.2719 60.4327H29.2813C29.8006 60.4327 30.2254 60.8576 30.2254 61.3768C30.2254 61.896 29.8006 62.3209 29.2813 62.3209ZM28.3372 57.6005C28.3372 58.1197 28.7621 58.5446 29.2813 58.5446C29.8006 58.5446 30.2254 58.1197 30.2254 57.6005C30.2254 57.0812 29.8006 56.6564 29.2813 56.6564H29.2719C28.7526 56.6564 28.3372 57.0812 28.3372 57.6005ZM38.7222 62.3209C38.2029 62.3209 37.7781 61.896 37.7781 61.3768C37.7781 60.8576 38.1935 60.4327 38.7128 60.4327H38.7222C39.2414 60.4327 39.6663 60.8576 39.6663 61.3768C39.6663 61.896 39.2414 62.3209 38.7222 62.3209ZM37.7781 57.6005C37.7781 58.1197 38.2029 58.5446 38.7222 58.5446C39.2414 58.5446 39.6663 58.1197 39.6663 57.6005C39.6663 57.0812 39.2414 56.6564 38.7222 56.6564H38.7128C38.1935 56.6564 37.7781 57.0812 37.7781 57.6005Z" fill="#A08139"/>
</svg>
