<svg width="68" height="68" viewBox="0 0 68 68" fill="none" xmlns="http://www.w3.org/2000/svg">
<path fill-rule="evenodd" clip-rule="evenodd" d="M32.0262 28.7986C32.2132 29.1622 32.5768 29.37 32.9612 29.37C33.1171 29.37 33.2833 29.3285 33.4287 29.2557C33.5326 29.2038 36.0779 27.9052 36.0779 25.2145C36.0779 23.7392 35.3091 22.9705 34.7377 22.3991C34.2287 21.89 34.0001 21.6407 34.0001 21.0589C34.0001 20.4771 34.2287 20.2278 34.7377 19.7187L34.754 19.7022C35.3136 19.1323 36.0779 18.3541 36.0779 16.9034C36.0779 14.223 33.5326 12.914 33.4287 12.8621C32.9197 12.6024 32.2963 12.8101 32.0366 13.3192C31.7873 13.8282 31.9847 14.4516 32.4937 14.7113C32.4943 14.7118 32.499 14.7146 32.5075 14.7195C32.6586 14.8071 34.0001 15.5851 34.0001 16.9034C34.0001 17.4851 33.7716 17.7345 33.2625 18.2435L33.2351 18.2714C32.6765 18.84 31.9223 19.6076 31.9223 21.0589C31.9223 22.5341 32.6911 23.3029 33.2625 23.8743C33.7716 24.3833 34.0001 24.6327 34.0001 25.2145C34.0001 26.617 32.4937 27.4065 32.4937 27.4065C31.9743 27.6662 31.7665 28.2896 32.0262 28.7986ZM23.7154 30.8764C23.9024 31.24 24.266 31.4478 24.6504 31.4478L24.6296 31.4582C24.7854 31.4582 24.9516 31.4166 25.0971 31.3439C25.201 31.292 27.7462 29.9934 27.7462 27.3026C27.7462 25.8274 26.9775 25.0586 26.4061 24.4873C25.897 23.9782 25.6685 23.7289 25.6685 23.1471C25.6685 21.7446 27.1749 20.955 27.1749 20.955C27.6943 20.6953 27.9021 20.072 27.6424 19.5629C27.3826 19.0435 26.7593 18.8357 26.2502 19.0954C26.1464 19.1474 23.6011 20.446 23.6011 23.1367C23.6011 24.6119 24.3699 25.3807 24.9412 25.9521C25.4503 26.4611 25.6789 26.7105 25.6789 27.2923C25.6789 28.6146 24.3277 29.3946 24.1843 29.4774L24.1725 29.4843C23.6634 29.744 23.4556 30.3674 23.7154 30.8764ZM18.4167 58.4589H49.5833C54.383 58.4589 58.3515 54.8124 58.871 50.1478H59.9722C62.8395 50.1478 65.1667 47.8207 65.1667 44.9534C65.1667 44.382 64.6992 43.9145 64.1278 43.9145H3.87222C3.30083 43.9145 2.83333 44.382 2.83333 44.9534C2.83333 47.8207 5.16044 50.1478 8.02777 50.1478H9.12899C9.63805 54.8124 13.617 58.4589 18.4167 58.4589ZM18.4167 56.3811C14.7598 56.3811 11.7262 53.6696 11.2172 50.1478H53.7389C54.3103 50.1478 54.7778 49.6803 54.7778 49.1089C54.7778 48.5375 54.3103 48.07 53.7389 48.07H8.02777C6.66683 48.07 5.51366 47.1974 5.08772 45.9923H62.9123C62.4863 47.1974 61.3228 48.07 59.9722 48.07H57.8944C57.323 48.07 56.8555 48.5375 56.8555 49.1089C56.8555 53.119 53.5934 56.3811 49.5833 56.3811H18.4167ZM41.2724 31.4478C40.888 31.4478 40.5244 31.24 40.3374 30.8764C40.0777 30.3674 40.2855 29.744 40.7945 29.4843L40.8063 29.4774C40.9498 29.3946 42.3009 28.6146 42.3009 27.2923C42.3009 26.7105 42.0724 26.4611 41.5633 25.9521C40.9919 25.3807 40.2231 24.6119 40.2231 23.1367C40.2231 20.446 42.7684 19.1474 42.8723 19.0954C43.3917 18.8357 44.0151 19.0435 44.2644 19.5629C44.5241 20.072 44.3164 20.6953 43.7969 20.955C43.7969 20.955 42.2905 21.7446 42.2905 23.1471C42.2905 23.7289 42.5191 23.9782 43.0281 24.4873C43.5995 25.0586 44.3683 25.8274 44.3683 27.3026C44.3683 29.9934 41.823 31.292 41.7191 31.3439C41.5737 31.4166 41.4075 31.4582 41.2516 31.4582L41.2724 31.4478ZM57.0941 41.8263C56.8136 41.8263 56.5228 41.712 56.3254 41.4835C55.702 40.7874 54.6528 40.5692 53.7593 41.0783C53.2814 41.3484 52.6685 41.203 52.3672 40.7355C51.8374 39.9044 50.7985 39.5407 49.8427 39.9147C49.5726 40.029 49.2609 40.0082 48.9908 39.8836C48.7207 39.7589 48.5337 39.5096 48.4506 39.2291C48.2013 38.3252 47.3805 37.6915 46.4559 37.6915C45.5936 37.6915 44.8145 38.2421 44.5132 39.0525C44.3885 39.3953 44.0976 39.6446 43.7444 39.707C43.3912 39.7797 43.0276 39.655 42.7783 39.3953C42.2173 38.7927 41.4589 38.533 40.555 38.8551C40.2226 38.9797 39.859 38.9174 39.5681 38.7096C39.2876 38.4915 39.1318 38.159 39.1629 37.8058C39.1629 37.785 39.1733 37.6811 39.1837 37.6604C39.1837 36.5384 38.2487 35.6034 37.1059 35.6034C36.2436 35.6034 35.4645 36.154 35.1632 36.9643C35.0385 37.3071 34.7476 37.5565 34.3944 37.6188C34.0412 37.6915 33.6776 37.5669 33.4283 37.3071C32.5452 36.3514 30.883 36.4968 30.1765 37.5669C29.7921 38.1486 28.826 38.1486 28.4416 37.5669C28.0572 36.9851 27.4027 36.6319 26.7066 36.6319C25.6262 36.6319 24.7224 37.4837 24.6496 38.5642C24.6185 38.959 24.3691 39.3122 23.9951 39.4576C23.6211 39.6031 23.2056 39.5304 22.9043 39.2602C22.2498 38.6577 21.3044 38.5226 20.4941 38.9901C20.0058 39.2602 19.4032 39.1044 19.102 38.6473C18.7176 38.0344 18.0631 37.6707 17.3463 37.6707C16.7749 37.6707 16.3074 37.2032 16.3074 36.6319C16.3074 36.0605 16.7749 35.593 17.3463 35.593C18.4683 35.593 19.5175 36.0397 20.2863 36.8189C21.159 36.5384 22.1251 36.5799 22.9666 36.902C23.6419 35.5099 25.0652 34.5541 26.6962 34.5541C27.652 34.5541 28.5662 34.8865 29.2935 35.4683C30.5505 34.4502 32.4517 34.284 33.8646 35.0631C34.6438 34.1074 35.8177 33.5256 37.0851 33.5256C39.0175 33.5256 40.6485 34.8554 41.1056 36.6422C41.8433 36.6215 42.5705 36.7981 43.2146 37.1513C43.9938 36.1955 45.1677 35.6034 46.4351 35.6034C47.9519 35.6034 49.3129 36.4345 50.0401 37.7227C51.3283 37.5461 52.6373 38.0032 53.5308 38.9174C55.0475 38.4395 56.7721 38.9174 57.8421 40.1121C58.2265 40.5381 58.185 41.1926 57.759 41.577C57.5616 41.7536 57.3123 41.8471 57.063 41.8471L57.0941 41.8263ZM18.0109 41.7536C18.1356 41.8055 18.2811 41.8367 18.4161 41.8367V41.8471C18.8213 41.8471 19.2057 41.6081 19.3719 41.2134C19.6004 40.6939 19.3615 40.081 18.8317 39.8524L4.28722 33.6191C3.76778 33.3905 3.15483 33.6295 2.92628 34.1593C2.69772 34.6787 2.93667 35.2917 3.4665 35.5202L18.0109 41.7536Z" fill="#A08139"/>
</svg>
