<svg width="68" height="68" viewBox="0 0 68 68" fill="none" xmlns="http://www.w3.org/2000/svg">
<path fill-rule="evenodd" clip-rule="evenodd" d="M39.6292 17.4147C39.4686 17.4147 39.2986 17.377 39.1475 17.2825C38.6942 17.0181 38.5525 16.442 38.8169 15.9886C39.478 14.8742 39.7236 13.552 39.5253 12.277C39.0436 9.23585 36.1725 7.14863 33.1314 7.6303C31.0442 7.96086 29.3442 9.38697 28.6831 11.3514C28.5225 11.8425 27.9842 12.1164 27.4836 11.9464C26.9925 11.7764 26.7186 11.2475 26.8886 10.747C27.7669 8.11197 30.0431 6.20419 32.8292 5.7603C34.8031 5.44864 36.7769 5.92086 38.3919 7.09197C40.0069 8.26308 41.0647 10.0009 41.3858 11.9747C41.6597 13.6936 41.3197 15.4597 40.4414 16.952C40.2619 17.2542 39.9503 17.4147 39.6292 17.4147ZM44.2761 29.7964C44.465 30.0231 44.7389 30.1458 45.0128 30.1458C45.2205 30.1458 45.4283 30.0797 45.6078 29.9381C47.8367 28.1342 49.1117 25.452 49.1117 22.5903C49.1117 18.8975 47.0905 15.6297 43.8511 14.0714C43.3883 13.8542 42.8217 14.0431 42.595 14.5153C42.3683 14.9781 42.5667 15.5447 43.0389 15.7714C45.6172 17.0086 47.2228 19.6247 47.2228 22.5903C47.2228 24.8758 46.2028 27.0197 44.4178 28.4647C44.0117 28.7953 43.9455 29.3903 44.2761 29.7964ZM41.5556 47.1458C40.2427 47.1458 38.969 46.9226 37.7775 46.5032V60.368H40.611V49.9791C40.611 49.4597 41.0359 49.0347 41.5554 49.0347C42.0748 49.0347 42.4998 49.4597 42.4998 49.9791V60.368H45.3336V48.0903C45.3336 47.7597 45.5036 47.448 45.787 47.278C46.0703 47.108 46.4197 47.0986 46.7125 47.2497C47.8364 47.8447 49.0831 48.0808 50.9908 48.0808C56.1947 48.0808 60.4353 43.8403 60.4353 38.6364C60.4353 34.4336 57.6114 30.6936 53.5692 29.5508C53.0686 29.4092 52.7758 28.8897 52.9175 28.3892C53.0592 27.8886 53.5786 27.5958 54.0792 27.7375C58.9336 29.1069 62.3242 33.5931 62.3242 38.6458C62.3242 44.898 57.2431 49.9791 50.9908 49.9791C49.8292 49.9791 48.5258 49.913 47.2131 49.4975V60.368H55.7218C56.2412 60.368 56.6662 60.793 56.6662 61.3125C56.6662 61.8319 56.2412 62.2569 55.7218 62.2569H36.8331L31.1662 62.2569H31.1568L21.7222 62.2569H21.7128L16.0551 62.2569C15.5357 62.2569 15.1107 61.8319 15.1107 61.3125C15.1107 60.793 15.5357 60.368 16.0551 60.368H20.7778V49.4975C19.465 49.913 18.1617 49.9791 17 49.9791C10.7478 49.9791 5.66669 44.898 5.66669 38.6458C5.66669 33.5931 9.05724 29.1164 13.9117 27.7375C14.4122 27.5958 14.9317 27.8886 15.0733 28.3892C15.215 28.8897 14.9222 29.4092 14.4217 29.5508C10.3795 30.6936 7.55557 34.4336 7.55557 38.6364C7.55557 43.8403 11.7961 48.0808 17 48.0808C18.9172 48.0808 20.1544 47.8353 21.2783 47.2497C21.5711 47.0986 21.9206 47.108 22.2039 47.278C22.4872 47.448 22.6572 47.7597 22.6572 48.0903V60.368H25.4998V49.9791C25.4998 49.4597 25.9248 49.0347 26.4443 49.0347C26.9637 49.0347 27.3887 49.4597 27.3887 49.9791V60.368H30.2218V46.6641C28.909 47.0797 27.6057 47.1458 26.444 47.1458C20.1918 47.1458 15.1107 42.0647 15.1107 35.8125C15.1107 30.7597 18.5012 26.2831 23.3557 24.9042C23.8562 24.7625 24.3757 25.0553 24.5173 25.5558C24.659 26.0564 24.3662 26.5758 23.8657 26.7175C19.8235 27.8603 16.9996 31.6003 16.9996 35.803C16.9996 41.0069 21.2401 45.2475 26.444 45.2475C28.3612 45.2475 29.5984 45.0019 30.7223 44.4164C31.0151 44.2653 31.3646 44.2747 31.6479 44.4447C31.9312 44.6147 32.1012 44.9264 32.1012 45.2569V60.368H35.8886V45.6348C34.0316 44.5633 32.4837 42.9632 31.4595 40.9692C31.2233 40.5064 31.4028 39.9397 31.8656 39.6942C32.3283 39.458 32.9045 39.6375 33.1406 40.1003C34.765 43.2736 37.9856 45.2475 41.5556 45.2475C46.7594 45.2475 51 41.0069 51 35.8031C51 33.5931 50.2539 31.4586 48.9033 29.7869C48.5728 29.3808 48.6389 28.7858 49.045 28.4553C49.4511 28.1247 50.0461 28.1908 50.3767 28.5969C52.0011 30.5992 52.8983 33.1586 52.8983 35.8031C52.8983 42.0553 47.8172 47.1364 41.565 47.1364L41.5556 47.1458ZM6.61113 62.2569H12.2778C12.7972 62.2569 13.2222 61.8319 13.2222 61.3125C13.2222 60.793 12.7972 60.368 12.2778 60.368H6.61113C6.09169 60.368 5.66669 60.793 5.66669 61.3125C5.66669 61.8319 6.09169 62.2569 6.61113 62.2569ZM59.4999 62.2569H61.3888C61.9083 62.2569 62.3333 61.8319 62.3333 61.3125C62.3333 60.793 61.9083 60.368 61.3888 60.368H59.4999C58.9805 60.368 58.5555 60.793 58.5555 61.3125C58.5555 61.8319 58.9805 62.2569 59.4999 62.2569ZM18.9644 23.9314C19.0305 24.4036 19.4366 24.7436 19.8994 24.7436H20.0222C20.5322 24.6681 20.9005 24.1958 20.825 23.6764C20.7211 22.8925 20.74 22.0897 20.8816 21.2775C21.6089 17.1692 25.5377 14.4208 29.6366 15.1481C30.1561 15.2331 30.6377 14.8931 30.7322 14.3831C30.8266 13.8636 30.4772 13.382 29.9672 13.2875C27.4833 12.8531 24.9805 13.4103 22.9122 14.8553C20.8439 16.3003 19.465 18.4631 19.0305 20.947C18.8511 21.9575 18.8322 22.9586 18.9644 23.9314ZM9.52043 26.7647C9.58654 27.237 9.99265 27.577 10.4554 27.577V27.5675H10.5876C11.0976 27.492 11.466 27.0197 11.3904 26.5003C11.2865 25.7164 11.3054 24.9136 11.4471 24.1014C12.0232 20.8242 14.7432 18.2742 18.0488 17.9059C18.5304 17.8586 18.8893 17.4525 18.8893 16.9709C18.8893 13.0136 21.3732 10.8225 23.6871 10.4542C23.961 10.4164 24.2443 10.3881 24.5371 10.3881C25.0565 10.3786 25.4721 9.95364 25.4721 9.4342C25.4721 8.91475 25.0471 8.4992 24.5276 8.4992C24.1404 8.4992 23.7532 8.53697 23.3849 8.59364C20.476 9.04697 17.3593 11.6064 17.0288 16.1586C13.2699 16.9236 10.2571 19.9553 9.58654 23.7803C9.40709 24.7908 9.3882 25.792 9.52043 26.7647ZM57.545 27.577H57.4128C56.8934 27.5014 56.5345 27.0292 56.61 26.5097C56.7139 25.7353 56.7045 24.9231 56.5534 24.1108C55.9773 20.8336 53.2573 18.2836 49.9517 17.9153C49.47 17.8586 49.1112 17.462 49.1112 16.9803C49.1112 13.0231 46.6273 10.832 44.3228 10.4636C44.0489 10.4164 43.7562 10.3975 43.4728 10.3975C42.9534 10.3975 42.5284 9.97253 42.5378 9.44364C42.5378 8.92419 42.9628 8.50864 43.4823 8.50864C43.8695 8.50864 44.2473 8.54642 44.625 8.60308C47.5339 9.06586 50.6506 11.6159 50.9812 16.1681C54.74 16.9236 57.7434 19.9553 58.4234 23.7897C58.6028 24.8003 58.6217 25.8014 58.4895 26.7742C58.4234 27.2464 58.0173 27.5864 57.5545 27.5864L57.545 27.577Z" fill="#A08139"/>
</svg>
