<?xml version="1.0" ?><svg width="32px" height="32px" viewBox="0 0 32 32" data-name="Layer 1" id="Layer_1" xmlns="http://www.w3.org/2000/svg"><defs><style>.cls-1{fill:#73fbd3;}.cls-2{fill:#bbffe8;}.cls-3{fill:#35edb4;}.cls-4{fill:#577590;}.cls-5{fill:#fec601;}</style></defs><rect class="cls-1" height="28" rx="2.5" width="20" x="6" y="2"/><path class="cls-2" d="M15,2h7a1,1,0,0,1,0,2H15a1,1,0,0,1,0-2Z"/><path class="cls-2" d="M6,13.5v-2a1,1,0,0,1,2,0v2a1,1,0,0,1-2,0Z"/><path class="cls-2" d="M6,24.5v-8a1,1,0,0,1,2,0v8a1,1,0,0,1-2,0Z"/><path class="cls-3" d="M24,20v4a4,4,0,0,1-4,4H11a1,1,0,0,0-1,1h0a1,1,0,0,0,1,1H23.5A2.5,2.5,0,0,0,26,27.5V20a1,1,0,0,0-1-1h0A1,1,0,0,0,24,20Z"/><path class="cls-4" d="M10.5,21h-1a.5.5,0,0,1-.5-.5v-9a.5.5,0,0,1,.5-.5h1A2.5,2.5,0,0,1,13,13.5v5A2.5,2.5,0,0,1,10.5,21ZM10,20h.5A1.5,1.5,0,0,0,12,18.5v-5A1.5,1.5,0,0,0,10.5,12H10Z"/><path class="cls-4" d="M17.5,21h-3a.5.5,0,0,1-.5-.5v-9a.5.5,0,0,1,1,0V20h2.5a.5.5,0,0,1,0,1Z"/><path class="cls-4" d="M22.5,21h-3a.5.5,0,0,1-.5-.5v-9a.5.5,0,0,1,1,0V20h2.5a.5.5,0,0,1,0,1Z"/><path class="cls-5" d="M12.17,6.93a.45.45,0,0,1,0-.23l.1-.43a.49.49,0,0,0-.34-.59l-.43-.13a.39.39,0,0,1-.19-.12L11,5.13a.5.5,0,0,0-.68,0l-.32.3a.47.47,0,0,1-.2.12l-.42.13A.5.5,0,0,0,9,6.27l.1.43a.45.45,0,0,1,0,.23L9,7.36A.51.51,0,0,0,9.36,8l.42.13a.56.56,0,0,1,.2.11l.32.3a.5.5,0,0,0,.68,0l.33-.3a.45.45,0,0,1,.19-.11L11.93,8a.5.5,0,0,0,.34-.59Zm-1.53.66a.78.78,0,1,1,.78-.78A.78.78,0,0,1,10.64,7.59Z"/></svg>